<?xml version="1.0" encoding="UTF-8"?>
<svg width="520px" height="572px" viewBox="0 0 520 572" version="1.1" xmlns="http://www.w3.org/2000/svg" xmlns:xlink="http://www.w3.org/1999/xlink">
    <!-- Generator: Sketch 52.4 (67378) - http://www.bohemiancoding.com/sketch -->
    <title>blockarcade@svg</title>
    <desc>Created with Sketch.</desc>
    <g id="Page-1" stroke="none" stroke-width="1" fill="none" fill-rule="evenodd">
        <g id="blockarcade-logo" transform="translate(-100.000000, -74.000000)">
            <g id="blockarcade" transform="translate(100.000000, 74.000000)">
                <path d="M505.9658,417.6357 L430.2518,459.3237 C427.2288,460.9897 425.3508,464.1667 425.3508,467.6177 C425.3508,474.8217 433.0748,479.3857 439.3848,475.9117 L515.0988,434.2227 C521.4758,430.7117 521.6688,421.6177 515.4488,417.8387 L515.4478,417.8377 C512.5518,416.0777 508.9348,416.0007 505.9658,417.6357" id="Fill-2" fill="#592A7D"></path>
                <path d="M339.5215,412.7119 C339.5215,419.9139 347.2455,424.4789 353.5545,421.0049 L503.1195,338.6529 L510.1285,334.7939 C516.5045,331.2829 516.6995,322.1899 510.4785,318.4099 L510.4785,318.4089 C507.5825,316.6489 503.9645,316.5719 500.9965,318.2069 L344.4225,404.4179 C341.3995,406.0819 339.5215,409.2599 339.5215,412.7109 L339.5215,412.7119 Z" id="Fill-4" fill="#EE5D9C"></path>
                <path d="M412.7051,485.0068 L412.7051,485.0058 C412.7051,477.8028 404.9811,473.2378 398.6721,476.7128 L321.0981,519.4258 C318.0751,521.0908 316.1971,524.2678 316.1971,527.7188 L316.1971,527.7198 C316.1971,534.9218 323.9211,539.4858 330.2301,536.0128 L407.8051,493.2998 C410.8271,491.6358 412.7051,488.4578 412.7051,485.0068" id="Fill-6" fill="#592A7D"></path>
                <path d="M264.5186,521.1123 L446.8896,420.6963 C449.9126,419.0323 451.7896,415.8543 451.7896,412.4033 L451.7896,412.4023 C451.7896,405.2003 444.0666,400.6353 437.7566,404.1093 L266.1346,498.6063 C263.1656,500.2413 259.5486,500.1643 256.6526,498.4033 L212.6766,471.6813 C206.3676,467.8473 198.2936,472.3893 198.2936,479.7723 L198.2936,481.1043 C198.2936,484.4103 200.0186,487.4773 202.8446,489.1943 L255.0366,520.9093 C257.9326,522.6703 261.5496,522.7473 264.5186,521.1123" id="Fill-8" fill="#A63994"></path>
                <path d="M464.4355,395.0146 L464.4355,395.0156 C464.4355,402.2176 472.1595,406.7826 478.4685,403.3086 L505.6035,388.3686 L512.6145,384.5076 C518.9905,380.9966 519.1845,371.9046 512.9635,368.1236 C510.0665,366.3636 506.4505,366.2856 503.4805,367.9206 L469.3355,386.7216 C466.3135,388.3856 464.4355,391.5636 464.4355,395.0146" id="Fill-10" fill="#A63994"></path>
                <path d="M289.5176,536.8145 L268.6206,548.3205 C265.6506,549.9565 262.0346,549.8775 259.1376,548.1185 L154.2456,484.3795 C147.9366,480.5455 139.8626,485.0875 139.8626,492.4705 L139.8626,493.8015 C139.8626,497.1085 141.5876,500.1755 144.4136,501.8925 L257.5206,570.6235 C260.4166,572.3835 264.0346,572.4605 267.0026,570.8265 L298.6506,553.4005 C301.6736,551.7365 303.5516,548.5585 303.5516,545.1075 C303.5516,537.9045 295.8276,533.3395 289.5176,536.8145" id="Fill-12" fill="#592A7D"></path>
                <path d="M122.6655,465.1904 L20.0445,402.8324 C17.1475,401.0714 13.5305,400.9944 10.5615,402.6284 C3.6735,406.4214 3.4635,416.2444 10.1835,420.3274 L112.8325,482.7034 C119.1425,486.5364 127.2165,481.9944 127.2165,474.6124 L127.2165,473.2814 C127.2165,469.9744 125.4915,466.9074 122.6655,465.1904" id="Fill-14" fill="#592A7D"></path>
                <path d="M96.8945,359.7783 L96.8945,358.4463 C96.8945,355.1393 95.1685,352.0723 92.3435,350.3553 L15.0755,303.4023 C12.1785,301.6423 8.5615,301.5653 5.5925,303.2003 L5.5915,303.2003 C-1.2955,306.9933 -1.5055,316.8153 5.2135,320.8983 L15.5545,327.1813 L82.5105,367.8693 C88.8195,371.7023 96.8945,367.1613 96.8945,359.7783" id="Fill-16" fill="#EE5D9C"></path>
                <path d="M114.0908,387.0586 L252.5508,471.1956 C255.4468,472.9546 259.0648,473.0326 262.0328,471.3976 L321.9758,438.3926 C324.9978,436.7286 326.8758,433.5506 326.8758,430.0996 L326.8758,430.0986 C326.8758,422.8966 319.1528,418.3316 312.8428,421.8056 L263.6508,448.8916 C260.6808,450.5266 257.0648,450.4496 254.1678,448.6896 L123.9238,369.5446 C117.6138,365.7116 109.5398,370.2526 109.5398,377.6356 L109.5398,378.9676 C109.5398,382.2746 111.2648,385.3406 114.0908,387.0586" id="Fill-18" fill="#EE5D9C"></path>
                <path d="M185.6479,461.9141 L185.6479,460.5831 C185.6479,457.2761 183.9229,454.2091 181.0969,452.4921 L17.5599,353.1171 C14.6629,351.3571 11.0459,351.2791 8.0769,352.9151 C1.1889,356.7071 0.9789,366.5291 7.6979,370.6121 L18.0389,376.8961 L171.2649,470.0051 C177.5739,473.8391 185.6479,469.2971 185.6479,461.9141" id="Fill-20" fill="#A63994"></path>
                <path d="M318.1064,157.9443 C310.2124,163.3073 301.4654,167.4883 292.1324,170.3323 L291.7854,204.8393 L412.3304,278.0903 L263.0534,360.2803 L112.0354,268.5153 L261.3124,186.3213 L263.0374,187.3693 L263.6664,124.8633 L262.2324,123.9923 L4.3634,265.9773 L262.1314,422.6113 L520.0004,280.6263 L318.1064,157.9443 Z" id="Fill-22" fill="#FEFEFE"></path>
                <path d="M314.8291,80.2153 C311.3551,80.1463 308.4451,77.5343 308.0471,74.0833 C305.7671,54.3813 290.4801,38.4743 270.8851,35.4153 C267.4521,34.8803 264.9571,31.8683 265.0261,28.3943 L265.0261,28.3933 C265.1091,24.2123 268.8361,20.9763 272.9691,21.6163 C298.7961,25.6123 318.9491,46.5823 321.9171,72.5483 C322.3911,76.7043 319.0111,80.2983 314.8291,80.2153 M265.5851,0.2933 C222.4831,-0.5627 186.7171,33.8063 185.8611,76.9113 C185.1551,112.4583 208.5921,144.0093 242.8501,153.6403 L248.0491,155.1003 L246.8061,249.2643 C246.7011,257.2133 253.0331,263.7573 260.9811,263.9133 C269.0041,264.0713 275.6211,257.6693 275.7261,249.6453 L276.9671,155.6753 L282.2121,154.4233 C316.8321,146.1593 341.5041,115.5633 342.2101,80.0163 C343.0651,36.9123 308.6921,1.1493 265.5851,0.2933" id="Fill-24" fill="#EE5D9C"></path>
            </g>
        </g>
    </g>
</svg>